# xmcd
#
# Track frame offsets:
#	150
#	10384
#	26937
#	42483
#	57072
#	72705
#	84985
#	99002
#	117017
#	135831
#	146636
#	158940
#	178939
#
# Disc length: 2530 seconds
#
# Revision: 0
# Processed by: cddbd v1.5.2PL0 Copyright (c) Steve Scherf et al.
# Submitted via: EasyCDDAExtractor 9.0.0.1
#
DISCID=ad09e00d
DTITLE=Coach - Magnum op. 02
DYEAR=2002
DGENRE=Country
TTITLE0=Na trasie E - 16
TTITLE1=Moja "Renówka"
TTITLE2=Piwny Marzyciel
TTITLE3=Do Leska, bracie!
TTITLE4=Przystanek w pól drogi
TTITLE5=Wlacz CB - Radio
TTITLE6=Thanks a lot
TTITLE7=Zawodowe ryzyko
TTITLE8=Twarda rzeczywistosc
TTITLE9=Meat and Potato Man
TTITLE10=Nie ma jak dom
TTITLE11=Orange Blossom Special
TTITLE12=Bonus track: Tennesee Waltz
EXTD=
EXTT0=
EXTT1=
EXTT2=
EXTT3=
EXTT4=
EXTT5=
EXTT6=
EXTT7=
EXTT8=
EXTT9=
EXTT10=
EXTT11=
EXTT12=
PLAYORDER=
